# xmcd
#
# Track frame offsets:
#	150
#	11902
#	23962
#	34830
#	52652
#	64087
#	77462
#	94645
#	106062
#	122972
#
# Disc length: 1935
#
# Revision: 1
# Processed by: cddbd v1.5.1PL0 Copyright (c) Steve Scherf et al.
# Submitted via: EasyCDDAExtractor 5.0.5.1
# Normalized: r0:DSETVAR1
#
DISCID=72078d0a
DTITLE=Various Artist - Shades of Blues [CDI)
DYEAR=1998
DGENRE=Blues
TTITLE0=B.B. King - Payin the Cost to Be the Boss_B.B.King
TTITLE1=Lightnin' Hopkins - Lonesome Dog_Lightnin'Hopkins
TTITLE2=Billie Holiday - I Got It Bad and That Ain't Good_Billie Holiday
TTITLE3=John Mayall - Mama Talk To Your Daughter_John Mayall
TTITLE4=John Lee Hooker - Boom Boom_John Lee Hooker
TTITLE5=Elmore James - Dust My Broom_Elmore James
TTITLE6=Charles Brown - Driftin Blues_Charles Brown
TTITLE7=Elmore James - Look On Yonder Wall_Elmore James
TTITLE8=Gatemouth Moore - Goin Down Slow_Gatemouth Moore
TTITLE9=B.B. King - The Thrill Is Gone_B.B.King
EXTD=
EXTT0=
EXTT1=
EXTT2=
EXTT3=
EXTT4=
EXTT5=
EXTT6=
EXTT7=
EXTT8=
EXTT9=
PLAYORDER=
